<?xml version="1.0" encoding="utf-8"?>
<!-- Generator: Adobe Illustrator 17.0.0, SVG Export Plug-In . SVG Version: 6.00 Build 0)  -->
<!DOCTYPE svg PUBLIC "-//W3C//DTD SVG 1.1//EN" "http://www.w3.org/Graphics/SVG/1.1/DTD/svg11.dtd">
<svg version="1.1" id="图层_1" xmlns="http://www.w3.org/2000/svg" xmlns:xlink="http://www.w3.org/1999/xlink" x="0px" y="0px"
	 width="34px" height="132px" viewBox="0 0 34 132" enable-background="new 0 0 34 132" xml:space="preserve">
<g>
	<path d="M17.778,63.886c0,0.396-0.018,0.811,0,1.225c0.036,1.476,0.091,2.953,0.108,4.447c0.019,0.774-0.126,1.549-0.504,2.232
		l-0.792,0.667l-0.414-0.126c0.072-2.341,0.144-4.628,0.198-6.914c-0.846,1.097-1.747,2.124-2.755,3.042
		c-1.764,1.566-2.827,2.286-3.313,2.322c1.008-1.062,2.017-2.106,2.989-3.169c1.008-1.062,1.674-2.358,2.449-3.583
		c-0.018-0.036-0.054-0.072-0.09-0.108l-2.323,0.343l-0.396-1.099h3.349l-0.108-4.087c-1.207,0-2.287,0.252-3.439,0.504
		c-0.036,0.612-0.072,1.188-0.126,1.765c-0.126,1.44-0.18,2.898-0.396,4.321c-0.216,1.476-0.738,2.844-1.656,4.033
		c-0.702,0.9-1.495,1.746-2.449,2.412c-0.288,0.198-0.576,0.45-1.062,0.307c0.288-0.252,0.558-0.45,0.792-0.702
		c0.774-0.774,1.494-1.621,1.999-2.611c0.216-0.396,0.45-0.792,0.63-1.224c0.414-1.009,0.594-2.052,0.612-3.133
		c0.018-1.278,0.09-2.557,0.072-3.835c-0.018-0.738-0.108-1.477-0.198-2.196c-0.018-0.162-0.162-0.324-0.306-0.433
		c-0.216-0.162-0.468-0.27-0.774-0.45c0.486-0.233,0.937-0.432,1.44-0.684l1.531,0.702c0.216,0.27,0.36,0.72,0.918,0.684
		l0.306-0.233h1.854c0-0.702,0.018-1.368-0.018-2.035c-0.018-0.252-0.234-0.485-0.324-0.702l-0.576-0.216
		c0.45-0.54,1.062-0.63,1.638-0.378c0.504,0.234,1.062,0.378,1.656,0.594L18.517,56l-0.702,0.99c-0.018,0.36-0.054,0.774-0.09,1.188
		h2.701l0.792-0.648c0.576,0.378,1.188,0.685,1.53,1.332c-0.072,0.198-0.144,0.36-0.252,0.576c-0.162,0.019-0.342,0.072-0.468,0.019
		c-0.973-0.324-1.981-0.288-2.972-0.378c-0.611-0.055-1.224-0.091-1.854-0.126c-0.09,0-0.198,0.018-0.324,0.126l1.332,0.468
		l0.234,0.486c-0.217,0.306-0.433,0.63-0.685,1.026v2.07c0.774,0,1.494,0.018,2.215,0c0.18-0.018,0.378-0.144,0.54-0.27
		c0.233-0.145,0.432-0.343,0.63-0.505c1.206,0.595,1.656,1.081,1.17,1.783c-1.224-0.072-2.466-0.576-3.816-0.307
		c0.18,0.396,0.324,0.738,0.486,1.135c1.458,2.052,3.673,3.15,6.05,3.978v0.108c-0.505,0.072-1.045,0.072-1.513,0.216
		c-0.486,0.162-0.937,0.486-1.44,0.738c-1.062-0.684-1.999-1.548-2.809-2.593c-0.811-1.062-0.937-2.34-1.261-3.583L17.778,63.886z"
		/>
</g>
</svg>
