<?xml version="1.0" encoding="utf-8"?>
<!-- Generator: Adobe Illustrator 17.0.0, SVG Export Plug-In . SVG Version: 6.00 Build 0)  -->
<!DOCTYPE svg PUBLIC "-//W3C//DTD SVG 1.1//EN" "http://www.w3.org/Graphics/SVG/1.1/DTD/svg11.dtd">
<svg version="1.1" id="图层_1" xmlns="http://www.w3.org/2000/svg" xmlns:xlink="http://www.w3.org/1999/xlink" x="0px" y="0px"
	 width="23px" height="135.28px" viewBox="0 0 23 135.28" enable-background="new 0 0 23 135.28" xml:space="preserve">
<g>
	<path d="M9.882,72.719V71.17c-0.504-0.18-3.187,0.019-3.763,0.271c-0.054,0.306-0.054,0.666-0.162,0.99
		c-0.09,0.306-0.306,0.594-0.504,0.972c-0.234-0.144-0.414-0.233-0.576-0.324c0.198-1.17,0.233-2.25,0.144-3.349
		c-0.054-0.702-0.036-1.422-0.054-2.125c-0.019-1.531-0.036-3.043-0.072-4.574c0-0.126-0.072-0.252-0.107-0.36l-0.757-0.45
		l0.811-0.396l1.314,0.414c0.216-0.036,0.504-0.072,0.882-0.144c0-0.342,0.019-0.738,0.019-1.116v-1.207
		c-1.116,0.036-2.161,0.234-3.205,0.648c-0.181-0.396-0.36-0.738-0.576-1.188h4.015v-0.09c0.505-0.036,1.009-0.09,1.531-0.072
		c0.702,0.018,1.35-0.108,1.872-0.648c0.072-0.072,0.18-0.108,0.324-0.198l0.937,0.648l0.071,0.72l-0.449,0.342
		c-0.811-0.27-1.621-0.324-2.449-0.324l-0.054,0.162l0.647,0.36c0.162,0.396-0.252,0.576-0.449,0.882v1.026h0.666l0.54-0.811
		l1.08,0.882c0.036,0.378-0.126,0.648-0.396,0.828c0.019,1.351,0.055,2.665,0.091,3.997l0.107,2.377
		c0.036,0.612,0.108,1.242,0.055,1.854c-0.091,0.774-0.343,1.513-1.152,1.908L9.882,72.719z M5.957,67.497
		c0.937-0.09,1.818-0.198,2.701-0.288l-0.036-0.09l0.504-0.486l0.559,0.864l-0.162,0.594c-1.171-0.036-2.305,0.126-3.439,0.343
		v2.106l3.943-0.307c0.126-1.638-0.162-3.205-0.019-4.862l-1.26,0.126l-0.324-0.36c-0.019-0.864,0.054-1.71-0.108-2.539
		c-0.414,0.054-0.486,0.324-0.504,0.612c-0.108,1.008-0.594,1.854-1.135,2.683c-0.09,0.144-0.216,0.234-0.323,0.36l-0.126-0.054
		c0-0.126-0.036-0.27,0-0.378c0.09-0.216,0.216-0.414,0.306-0.612c0.342-0.756,0.45-1.531,0.433-2.377
		c-0.343,0.018-0.648,0.036-1.009,0.072V67.497z M7.542,59.79l0.396,0.252v2.143l0.414,0.054c0.162-0.882,0.271-1.729,0.126-2.611
		c-0.324,0-0.612,0.018-0.9,0.036C7.577,59.701,7.56,59.737,7.542,59.79z M9.954,64.616l-0.09-2.035l-0.648,0.108v1.675
		L9.954,64.616z M18.776,72.017c-1.71,0.359-3.438,0.252-5.167,0.18c-0.54-0.036-1.152-0.738-1.171-1.296
		c-0.018-1.459-0.035-2.917-0.09-4.376c-0.018-0.72-0.054-1.422-0.144-2.125c-0.054-0.306-0.252-0.612-0.414-1.008l0.468-0.324
		c0.469,0.198,1.026,0.234,1.368,0.774c0.595-0.09,1.261,0.036,1.854-0.144v-3.133c-0.899,0.126-1.729,0.216-2.61,0.324
		c-0.144-0.342-0.271-0.667-0.433-1.026l3.296-0.198l1.296-1.116l0.468,0.504l0.36,0.09c0.576,0.864-0.162,1.26-0.63,1.8
		c0.054,1.117,0.09,2.287,0.126,3.457l-3.925,0.378c0.054,2.089-0.055,4.07,0.252,6.068c1.656,0.234,3.114-0.162,4.681-0.828
		l0.9-1.44c0.036,0.433,0.019,0.811,0.09,1.171c0.055,0.359,0.217,0.72,0.379,1.224C19.695,71.62,19.497,71.872,18.776,72.017z"/>
	<path d="M8.586,117.623l-0.307-0.216c-0.107-0.072-0.197-0.144-0.306-0.198c0.018-0.054,0.036-0.107,0.036-0.144l0.756-0.216
		l0.811-0.307l1.116,0.973l-0.09,0.504l-0.45,0.378c0.792,0.54,1.765,0.757,2.358,1.513c0.036,0.54-0.198,0.882-0.666,1.116
		c-0.27,0.144-0.504,0.378-0.828,0.612l-3.295,0.216c-0.072-0.072-0.18-0.18-0.307-0.342c-1.278,1.477-2.7,2.755-4.429,3.69
		C5.309,123.043,7.218,120.559,8.586,117.623z M12.925,117.335l1.621-0.612c0.324,0.396,0.972,0.522,1.26,1.188
		c-1.008,0.919-1.422,2.233-2.215,3.367c1.279,0.126,2.485-0.108,3.728-0.198c0.433-0.396,0.882-0.792,1.261-1.152l1.134,1.116
		c0.234,0.217,0.396,0.433,0.198,0.811H15.05c0.198,0.486,0.738,0.288,1.044,0.648c0.252,0.414-0.27,0.685-0.324,1.008l0.072,0.937
		c0.307,0.108,0.685-0.198,0.954,0.054l1.207-1.35c0.45,0.378,0.864,0.702,1.26,1.062c0.307,0.307,0.145,0.648-0.071,0.99
		l-0.45,0.217c0,1.008,0.018,2.034,0,3.061c-0.019,0.774-0.396,1.387-0.919,1.908c-0.144,0.145-0.359,0.217-0.612,0.343
		c-0.107-0.396-0.216-0.702-0.323-1.062l-0.685-0.576l0.685-0.252c0.378-1.188,0.233-2.449,0.378-3.745
		c-0.522-0.072-1.009-0.145-1.495,0.18c0,1.099,0,2.179,0.019,3.277c0,0.828,0.036,1.675,0,2.521
		c-0.019,0.792-0.378,1.44-1.116,2.017c-0.072-0.306-0.181-0.522-0.181-0.738c0-0.576,0.055-1.134,0.055-1.71
		c0-1.207-0.019-2.413-0.019-3.619v-1.945l-0.972,0.288c0,0.648,0.018,1.279,0,1.927c-0.019,0.648-0.055,1.278-0.108,2.106
		l-0.576,1.099c-0.396-0.054-0.468-0.234-0.45-0.486c0.036-1.566,0.072-3.133,0.09-4.699c0.019-0.486-0.036-0.954-0.054-1.44
		c0.847-0.036,1.116,0.216,1.008,0.774c0.145,0,0.307-0.019,0.45-0.036l0.469-0.072l-0.217-2.574l-1.044,0.18
		c-0.396,0.433-0.54,1.026-1.062,1.188l-0.702,0.864l0.288,0.108c0.036,0.702,0.126,1.404,0.072,2.106
		c-0.036,0.558-0.433,1.332-1.423,1.477l-0.107-0.811l-1.818,0.108l-0.181,1.314l2.233-0.234l0.396-0.288
		c0.576,0.162,0.576,0.162,1.009,0.774l-0.414,0.27c-0.667-0.126-2.647,0.019-3.098,0.234v1.062
		c0.469-0.036,0.973,0.018,1.404-0.126c0.414-0.126,0.774-0.486,1.188-0.757l0.181,0.343c0.126,0,0.252,0,0.396-0.019
		c0.145,0.181,0.307,0.343,0.469,0.54c-0.145,0.198-0.271,0.379-0.396,0.522l-3.241,0.162c0,0.973-0.27,1.71-1.098,2.179
		c-0.072-0.108-0.162-0.18-0.162-0.252c0-3.493,0.018-6.969,0.018-10.533c0.486,0.252,0.937,0.486,1.494,0.792
		c0.864,0.198,1.603-0.252,2.215-0.973c0.595,0.108,0.793,0.648,1.242,0.955c0.9-1.711,1.639-3.439,1.801-5.33L12.925,117.335z
		 M11.053,120.918l0.198-0.126c-0.307-0.846-0.811-1.584-1.369-2.322c-0.576,1.044-1.458,1.782-2.16,2.683
		c0.954,0.072,1.908,0.252,2.665-0.576c0.054-0.054,0.162-0.072,0.216-0.108L11.053,120.918z M8.244,126.573
		c0.72,0.054,1.368-0.09,1.98-0.324l0.09-1.009l-1.98,0.343L8.244,126.573z M8.37,123.818l-0.072,1.17l1.891-0.216v-1.188
		L8.37,123.818z"/>
</g>
</svg>
