<?xml version="1.0" encoding="utf-8"?>
<!-- Generator: Adobe Illustrator 17.0.0, SVG Export Plug-In . SVG Version: 6.00 Build 0)  -->
<!DOCTYPE svg PUBLIC "-//W3C//DTD SVG 1.1//EN" "http://www.w3.org/Graphics/SVG/1.1/DTD/svg11.dtd">
<svg version="1.1" id="图层_1" xmlns="http://www.w3.org/2000/svg" xmlns:xlink="http://www.w3.org/1999/xlink" x="0px" y="0px"
	 width="23px" height="135.28px" viewBox="0 0 23 135.28" enable-background="new 0 0 23 135.28" xml:space="preserve">
<g>
	<path d="M7.596,74.564l-0.359-0.631c0.45-2.772,0.162-5.563,0.288-8.354c-1.225,1.891-2.881,3.277-4.754,4.466
		c0.847-0.973,1.729-1.945,2.557-2.953c0.847-1.009,1.423-2.161,1.818-3.439c-0.72-0.197-1.313,0.234-1.944,0.307l-0.594-0.9
		l2.898-0.18v-3.439c-0.144-0.18-0.306-0.414-0.521-0.72l1.35-0.414l1.045,0.648C9.396,59.547,9,59.871,8.641,60.321v1.891
		c0,0.414,0,0.414,0.432,0.684l0.774-0.937l0.63,1.17c-0.126,0.342-0.306,0.342-0.558,0.306c-0.414-0.054-0.811-0.054-1.278-0.072
		c0,0.252-0.019,0.414-0.019,0.576c0.019,1.585,0.072,3.169,0.072,4.754c0,1.296-0.108,2.593-0.126,3.889
		c0,0.576-0.018,1.099-0.45,1.531L7.596,74.564z M8.965,63.869l1.656,1.35c-0.216,0.721-0.54,1.009-0.937,0.919L8.874,63.94
		L8.965,63.869z M10.531,60.753l-0.576-0.378c0.342-0.252,0.684-0.306,1.044-0.45l0.666,0.594l6.338-0.252l0.954-0.864l1.171,1.314
		c-0.126,0.342-0.307,0.306-0.54,0.306c-1.297-0.054-2.611-0.072-3.943-0.018l0.486,0.396l-0.288,0.685h1.584
		c0.145-0.27,0.252-0.541,0.414-0.846c0.486,0.414,1.135,0.576,1.351,1.242l-0.612,0.45v1.17h-2.665v0.702h2.989l0.757-0.828
		l1.206,1.188c-0.108,0.324-0.288,0.324-0.522,0.307c-0.576-0.055-1.17-0.108-1.746-0.108c-1.026,0-2.053,0.018-3.098,0.054
		c-0.702,0.036-1.404,0.09-2.106,0.145l-0.468,0.107c0.324,0.234,0.54,0.414,0.72,0.559h3.602c0.126-0.216,0.288-0.433,0.468-0.702
		l1.116,0.954l-0.521,0.666c0.054,0.721,0.126,1.495,0.162,2.269c0.054,0.828,0.018,0.955-0.414,1.603
		c0.45,0.162,0.899,0.307,0.954,0.919c-0.036,0.126-0.108,0.27-0.162,0.432c0.288,0.145,0.288,0.145,0.756-0.162
		c0.342,0.396,0.811,0.702,0.954,1.261c-0.144,0.378-0.504,0.378-0.756,0.36c-0.99-0.108-1.963,0.035-2.953,0.018
		c-0.558-0.018-1.098-0.09-1.656-0.09c-0.522,0-1.062,0.054-1.585,0.072c-0.773,0.018-1.548,0-2.412,0
		c-0.072-0.091-0.198-0.234-0.342-0.433c-0.145-4.159-0.019-8.372-0.181-12.586L10.531,60.753z M12.565,61.671
		c0.054-0.018,0.09-0.036,0.126-0.072c0.271,0.234,0.54,0.468,0.811,0.684l1.225-0.198v-1.099c-1.009,0.09-1.98-0.108-2.917,0.306
		c-0.234,0.432-0.181,10.209,0.09,11.56c1.963,0.162,3.907-0.018,5.996-0.18c-0.576-0.667-1.062-1.261-1.549-1.855l0.072-0.09
		l0.99,0.217l-0.162-0.522l-3.457,0.216c0,0.036,0.018,0.072,0.018,0.108l-0.612,0.576l-0.468-0.288v-5.312l-0.396-0.091
		l-0.233-0.449l-0.217-0.433h0.685V61.671z M14.42,70.746c0.108,0.162,0.216,0.306,0.396,0.521
		c-0.828,0.469-1.477,1.099-2.377,1.314c-0.018-0.036-0.036-0.071-0.072-0.107L14.42,70.746z M14.727,64.859l0.071-0.721h-1.224
		c-0.108,0.271-0.217,0.486-0.324,0.721H14.727z M13.483,63.49c0.271,0.036,0.45,0.055,0.631,0.055c0.198,0.018,0.414,0,0.63,0
		v-0.882h-1.261V63.49z M16.473,67.829c-0.954,0.054-1.872,0.018-2.755,0.252v0.648l2.701-0.145l0.666,0.45
		c-1.206,0.054-2.269,0.108-3.349,0.145v0.882c1.17,0.054,2.305,0,3.511-0.144l-0.271-3.224c-1.116,0.145-2.179-0.036-3.24,0.234
		v0.468h2.736V67.829z M17.229,62.428L15.86,62.59l0.036,0.9h1.332V62.428z"/>
	<path d="M10.927,133.513c-0.126-0.811-0.612-1.279-1.386-1.477l-0.091-0.055c0-0.018,0-0.035-0.035-0.107l2.017-0.162
		c0.611-2.017,0.432-4.105,0.521-6.176c-0.18-0.036-0.288-0.055-0.396-0.055c-1.729-0.035-3.367,0.343-4.97,0.973
		c-0.595,0.234-1.242,0.36-1.908,0.54c-0.127-0.342-0.198-0.72-0.379-1.044c-0.18-0.307-0.45-0.559-0.684-0.847
		c2.719-0.144,5.438-0.27,8.21-0.396c0.108-0.667-0.018-1.261-0.126-1.873c-0.09-0.594-0.216-1.206-0.36-1.927l1.261,0.738
		c0.594-0.63,1.206-1.26,1.801-1.908l-0.055-0.108c-2.34,0.036-4.609,0.45-6.859,1.099l-0.99-1.692l8.66-0.162
		c0.342-0.396,0.666-0.792,0.99-1.188c0.918,0.486,1.566,1.225,1.711,1.927c-0.145,0.468-0.414,0.738-0.954,0.72
		c-0.253,0-0.505,0.126-0.738,0.234l-3.062,1.44c0.504,0.756,0.162,1.639,0.469,2.484c0.162,0,0.359,0.019,0.558,0.019
		c0.559,0,1.135-0.036,1.711,0c0.684,0.054,1.224-0.162,1.71-0.63c0.108-0.108,0.288-0.162,0.433-0.253l1.998,1.801l-0.378,0.828
		c-1.998-0.864-4.051-0.738-6.122-0.937c0.055,0.9,0.126,1.675,0.145,2.467c0.036,1.026,0.234,2.107,0.036,3.098
		c-0.288,1.494-0.685,2.412-2.503,3.097C11.071,133.819,10.945,133.675,10.927,133.513z"/>
</g>
</svg>
