<?xml version="1.0" encoding="utf-8"?>
<!-- Generator: Adobe Illustrator 17.0.0, SVG Export Plug-In . SVG Version: 6.00 Build 0)  -->
<!DOCTYPE svg PUBLIC "-//W3C//DTD SVG 1.1//EN" "http://www.w3.org/Graphics/SVG/1.1/DTD/svg11.dtd">
<svg version="1.1" id="图层_1" xmlns="http://www.w3.org/2000/svg" xmlns:xlink="http://www.w3.org/1999/xlink" x="0px" y="0px"
	 width="28px" height="137.28px" viewBox="0 0 28 137.28" enable-background="new 0 0 28 137.28" xml:space="preserve">
<g enable-background="new    ">
	<path d="M13.98,61.178l-0.072-0.126l-0.792,0.09c-0.018,1.08-0.558,1.692-1.584,1.963c-0.252-0.666,0.252-1.278,0-1.944
		c-0.846,0.144-1.729,0.306-2.665,0.45l-0.612-1.387l3.367,0.144v-1.638l-0.396-0.595c0.882-0.144,1.639-0.144,2.341,0.126
		c0.18,0.576,0.036,0.973-0.378,1.278l-0.054,0.9l1.062-0.324c0.09,0.108,0.27,0.252,0.306,0.433
		c0.072,0.378,0.36,0.504,0.612,0.684c0.217,0.127,0.433,0.271,0.648,0.414c-0.072,0.217-0.126,0.396-0.18,0.522
		c0.359,0.45,0.666,0.919,1.044,1.297c0.396,0.414,0.811,0.828,1.278,1.098c1.368,0.811,2.809,1.459,4.34,1.909
		c0.45,0.126,0.918,0.252,1.404,0.486c-0.45,0.144-0.937,0.233-1.351,0.449c-0.414,0.217-0.774,0.541-1.152,0.811L19.364,67.3
		c-1.045-0.559-1.927-1.332-2.611-2.305c-0.45-0.63-0.738-1.387-1.099-2.089l-0.233-0.504l-1.225,1.458
		C12,66.508,9.443,68.758,6.454,70.469c-0.054,0.018-0.126,0-0.198,0c-0.018-0.036-0.036-0.072-0.036-0.108
		C9.443,67.84,12.359,65.049,13.98,61.178z M13.926,74.286l-0.324-0.847c0.414-1.675,0.45-3.331,0.342-5.024l-1.584,0.072
		c0.018,0.252,0.018,0.504,0.054,0.739c0.108,0.558,0.288,1.134-0.018,1.656c-0.198,0.378-0.486,0.702-0.63,0.9
		c-0.756,0.342-1.333,0.612-1.873,0.846c-0.486-0.323-0.27-0.684-0.216-0.99c1.026-0.846,1.962-1.71,2.215-3.133l-0.72,0.054
		l-0.36-1.098c0.378,0.018,0.684,0.036,1.026,0.072l2.125-0.162v-1.495c-0.09-0.144-0.234-0.359-0.378-0.612l1.53-0.432
		c0.288,0.162,0.631,0.378,1.026,0.594c-0.126,0.307-0.216,0.541-0.324,0.774c-0.018-0.018-0.035-0.018-0.054-0.018l-0.054,1.17
		h1.351c0.18-0.216,0.342-0.414,0.485-0.612c0.667-0.233,0.793,0.396,1.117,0.666c0.27,0.217,0.144,0.522-0.019,0.829h-2.881
		c-0.018,0.233-0.072,0.414-0.072,0.594c-0.018,1.081-0.036,2.162-0.036,3.242c0.019,0.486-0.107,0.882-0.414,1.225
		c-0.126,0.126-0.197,0.288-0.306,0.449C14.593,73.926,14.286,74.106,13.926,74.286z M16.375,62.852l-0.271-0.469
		c0.055-0.485,0.126-0.899,0.198-1.404h-1.026l-0.18-0.954l1.278,0.126c0-0.882,0.342-1.71-0.288-2.574
		c1.044-0.162,1.837,0.233,2.629,0.485v0.667c-0.612,0.233-0.54,0.828-0.666,1.386c0.521,0.019,1.026,0.036,1.548,0.072l0.522-0.847
		c0.99,0.108,1.675,0.738,1.711,1.513c-0.145,0.288-0.415,0.288-0.667,0.271c-0.666-0.036-1.332-0.09-2.017-0.108
		c-0.45-0.036-0.9-0.018-1.422-0.018C17.689,61.862,17.113,62.366,16.375,62.852z M19.868,72.215
		c-0.559-0.071-0.937-0.504-1.333-0.846l-1.89-1.657c-0.036-0.018-0.072-0.071-0.181-0.216c1.368,0.216,2.701-0.054,3.926,0.648
		C20.931,70.955,20.75,71.675,19.868,72.215z"/>
</g>
<g enable-background="new    ">
	<path d="M12.45,118.127c0.324,0,0.648,0.27,0.972,0.45c0.162,0.09,0.306,0.216,0.522,0.378c0.72-0.054,1.513-0.09,2.305-0.18
		c0.18-0.019,0.36-0.181,0.504-0.307c0.252-0.216,0.469-0.468,0.757-0.756c0.485,0.45,0.972,0.9,1.404,1.332
		c0.09,0.378-0.055,0.576-0.288,0.774c-0.217,0.162-0.414,0.342-0.595,0.486l-0.288,3.295c-0.018,0.468,0,0.918,0,1.387
		c0.036,1.152,0.055,2.305,0.126,3.457c0.036,0.414,0.198,0.828,0.288,1.188c1.135,0.324,2.106,0,3.043-0.378
		c0.648-0.288,0.774-0.972,0.828-1.62c0.019-0.271,0-0.54,0-0.811h0.162c0.019,0.162,0.055,0.324,0.055,0.486
		c0.018,0.811,0.071,1.603,0.521,2.287l0.145,0.216c0.54,0.72,0.504,1.099-0.145,1.675c-1.692,0.359-3.402,0.504-5.167,0.233
		c-0.864-0.45-1.045-1.296-1.062-2.232l-0.162-6.878c-0.018-0.973,0-1.944,0-2.971c-0.774,0.054-1.549,0.107-2.323,0.18
		l-0.415,0.666c0,1.026,0.018,2.035-0.27,3.115c0,0.018,0.072,0.126,0.072,0.234c-0.072,1.476-0.108,2.952-0.72,4.321
		c-0.504,1.116-1.188,2.124-2.197,2.881c-0.648,0.485-1.242,1.026-1.891,1.53c-0.198,0.162-0.45,0.288-0.702,0.432
		c-0.432,0.217-0.864,0.45-1.368,0.595c0.27-0.217,0.522-0.469,0.81-0.631c0.918-0.468,1.621-1.17,2.305-1.908l0.558-0.594
		c0.45-0.433,0.756-0.937,0.955-1.513c0.108-0.342,0.306-0.666,0.378-1.026c0.162-0.918,0.288-1.837,0.414-2.755
		c0.216-1.494,0.072-3.025,0.108-4.537c0.018-0.486-0.09-1.026-0.54-1.404c-0.18-0.145-0.342-0.379-0.594-0.667
		C11.513,118.379,11.981,118.163,12.45,118.127z"/>
</g>
</svg>
