<?xml version="1.0" encoding="utf-8"?>
<!-- Generator: Adobe Illustrator 17.0.0, SVG Export Plug-In . SVG Version: 6.00 Build 0)  -->
<!DOCTYPE svg PUBLIC "-//W3C//DTD SVG 1.1//EN" "http://www.w3.org/Graphics/SVG/1.1/DTD/svg11.dtd">
<svg version="1.1" id="图层_1" xmlns="http://www.w3.org/2000/svg" xmlns:xlink="http://www.w3.org/1999/xlink" x="0px" y="0px"
	 width="28px" height="137.28px" viewBox="0 0 28 137.28" enable-background="new 0 0 28 137.28" xml:space="preserve">
<g>
	<path d="M15.055,66.297c0.234-0.576,0.162-1.818-0.055-2.07c-0.72,0.054-1.422,0.108-2.16,0.18c0,0.738-0.486,1.134-1.152,1.476
		l-0.414-0.18c0-1.819,0.126-3.601-0.18-5.402c-0.162,0-0.253-0.018-0.307-0.018l-0.306-0.792l1.188-0.432l1.35,0.756h1.945v-3.277
		l-0.721-0.846c0.504-0.234,0.937-0.45,1.494-0.234c0.486,0.198,1.026,0.27,1.459,0.63l0.324,0.342l-0.631,0.594v0.558
		c0.631-0.036,1.261,0.234,1.819-0.27c0.342-0.324,0.72-0.594,1.098-0.9l1.188,1.116l0.055,0.504
		c-1.441,0.27-2.881,0.126-4.286,0.306l0.145,1.368h2.593l1.278-0.954c0.36,0.414,0.811,0.72,1.116,1.224
		c-0.234,0.216-0.414,0.396-0.648,0.594c0,0.27-0.054,0.612,0.019,0.918c0.162,0.738,0.18,1.477,0.09,2.214
		c-0.09,0.721-0.486,1.297-1.044,1.729c-0.234,0.198-0.559,0.288-0.883,0.45c-0.378-0.54-0.036-1.152-0.288-1.71h-2.845
		c-0.018,0.018-0.018,0.054-0.018,0.072l1.08,0.54l-0.486,0.684v0.648h3.637l1.927-1.243c0.378,0.648,1.099,1.062,1.099,2.035
		c-0.271,0.036-0.504,0.108-0.756,0.09c-1.135-0.054-2.251-0.144-3.386-0.216c-0.288-0.018-0.576,0-0.937,0
		c0.865,1.062,1.981,1.477,3.115,1.836c0.055,0.018,0.108,0,0.145,0.036c0.9,0.558,1.908,0.648,2.917,0.738
		c0.071,0.019,0.126,0.055,0.252,0.127c-0.469,0.342-0.973,0.306-1.387,0.449l-0.99,0.847c-1.206-0.198-2.251-0.756-3.259-1.368
		c-0.828-0.504-1.314-1.225-1.423-2.179c-0.018-0.144-0.072-0.288-0.09-0.432l-0.954-0.09c0.018,0.342,0.072,0.756,0.09,1.17
		c0.036,0.811,0.09,1.621,0.108,2.431c0.036,1.134-0.576,2.088-1.603,2.538c-0.055,0.036-0.108,0.019-0.181,0.019
		c-0.27-0.216-0.378-0.469-0.27-0.847c0.09-0.324,0.144-0.666,0.144-1.008c0.019-1.116,0-2.215,0-3.457
		c-2.646,2.322-5.672,3.745-8.876,4.808l-0.072-0.145c0.937-0.486,1.854-0.99,2.791-1.458c0.954-0.469,1.836-1.045,2.646-1.765
		c0.792-0.685,1.566-1.405,2.341-2.161c-2.161-0.018-4.285,0.306-6.446,0.415L7.15,66.459L15.055,66.297z M12.876,63.561l6.59-0.18
		v-3.007c-2.287,0.054-4.501,0.108-6.698,0.144v1.368c1.225-0.072,2.413-0.144,3.602-0.198c0.45-0.018,0.828-0.162,1.188-0.432
		l0.576-0.45l0.846,1.062c-0.144,0.36-0.324,0.468-0.63,0.468c-0.973,0-1.927,0-2.899,0.036c-0.899,0.036-1.8,0.108-2.755,0.162
		L12.876,63.561z"/>
	<path d="M14.622,131.946c-0.126-0.811-0.612-1.278-1.386-1.477l-0.091-0.055c0-0.018,0-0.036-0.035-0.107l2.017-0.162
		c0.611-2.017,0.432-4.105,0.521-6.176c-0.18-0.036-0.288-0.055-0.396-0.055c-1.729-0.035-3.367,0.343-4.97,0.973
		c-0.595,0.234-1.242,0.36-1.908,0.54c-0.127-0.342-0.198-0.72-0.379-1.044c-0.18-0.307-0.45-0.559-0.684-0.847
		c2.719-0.144,5.438-0.27,8.21-0.396c0.108-0.667-0.018-1.261-0.126-1.873c-0.09-0.594-0.216-1.206-0.36-1.927l1.261,0.738
		c0.594-0.63,1.206-1.26,1.801-1.908l-0.055-0.108c-2.34,0.036-4.609,0.45-6.859,1.099l-0.99-1.692l8.66-0.162
		c0.342-0.396,0.666-0.792,0.99-1.188c0.918,0.486,1.566,1.225,1.711,1.927c-0.145,0.468-0.414,0.738-0.954,0.72
		c-0.253,0-0.505,0.126-0.738,0.234l-3.062,1.44c0.504,0.756,0.162,1.639,0.469,2.484c0.162,0,0.359,0.019,0.558,0.019
		c0.559,0,1.135-0.036,1.711,0c0.684,0.054,1.224-0.162,1.71-0.631c0.108-0.107,0.288-0.161,0.433-0.252l1.998,1.801l-0.378,0.828
		c-1.998-0.864-4.051-0.738-6.122-0.936c0.055,0.899,0.126,1.674,0.145,2.466c0.036,1.026,0.234,2.107,0.036,3.098
		c-0.288,1.494-0.685,2.412-2.503,3.097C14.767,132.251,14.641,132.107,14.622,131.946z"/>
</g>
</svg>
