<?xml version="1.0" encoding="utf-8"?>
<!-- Generator: Adobe Illustrator 17.0.0, SVG Export Plug-In . SVG Version: 6.00 Build 0)  -->
<!DOCTYPE svg PUBLIC "-//W3C//DTD SVG 1.1//EN" "http://www.w3.org/Graphics/SVG/1.1/DTD/svg11.dtd">
<svg version="1.1" id="图层_1" xmlns="http://www.w3.org/2000/svg" xmlns:xlink="http://www.w3.org/1999/xlink" x="0px" y="0px"
	 width="27px" height="139.28px" viewBox="0 0 27 139.28" enable-background="new 0 0 27 139.28" xml:space="preserve">
<g>
	<path d="M7.421,64.599c-0.12,0.16-0.3,0.28-0.48,0.44l-0.42-0.2L4.88,61.639c0.021-0.04,0.04-0.06,0.04-0.1
		c0.421,0.24,0.841,0.48,1.221,0.74c0.4,0.28,0.74,0.64,1.181,0.88c0.34,0.18,0.399,0.46,0.52,0.78
		C7.681,64.2,7.581,64.419,7.421,64.599z M9.602,61.219c0.06,0,0.12,0.02,0.18,0.02l-0.22,1.741c-0.16,1.02-0.38,2.06-0.48,3.101
		c-0.16,1.66-0.26,3.341-0.38,5.021c-0.04,0.64,0.2,1.3-0.1,1.94c-0.141,0.3-0.36,0.58-0.541,0.86c-0.58-0.101-0.76-0.42-0.779-0.82
		c-0.061-0.96-0.381-1.78-0.98-2.541c0.46-0.26,0.82,0.08,1.22,0.121L7.621,70.8c-0.141,0.061-0.28,0.141-0.42,0.221
		c0,0.04,0.02,0.08,0.04,0.12l0.58-0.14l-0.061,0.319l0.061,0.061l0.399-0.38c-0.14-0.261-0.54-0.4-0.24-0.761l-0.3-0.18
		c-0.08-0.541,0.681-3.581,0.9-3.901C8.961,64.379,9.281,62.799,9.602,61.219z M16.643,69.781h-0.439l0.06,0.439
		c-1,0.861-2.04,1.801-3.121,2.682c-0.359,0.319-0.84,0.5-1.26,0.779c-0.46,0.301-0.9,0.681-1.38,0.98
		c-0.881,0.54-1.801,1.061-2.701,1.58c-0.16,0.101-0.34,0.12-0.5,0.16l-0.06-0.12l0.279-0.22c1.24-0.8,2.501-1.601,3.701-2.44
		c0.521-0.38,0.92-0.92,1.4-1.36c0.4-0.38,0.82-0.72,1.22-1.101c0.221-0.22,0.381-0.479,0.58-0.72c0.32-0.36,0.66-0.7,1.001-1.04
		c0.1-0.12,0.2-0.24,0.279-0.36l0.841-1.28l1.06-1.62l-0.439-0.7l1.22-0.28c0.4,0.58,0.801,1.12,1.221,1.701L16.643,69.781z
		 M8.781,60.199h-0.66l-0.5-3.201c0.68,0.58,1.26,1.08,1.82,1.58c0.36,1.101,0.18,1.621-0.681,1.881
		C8.761,60.359,8.781,60.279,8.781,60.199z M11.622,62.739c0.34,0.06,0.319,0.38,0.38,0.68l-0.28,0.26c0.14,0,0.26,0.02,0.38,0.02
		c0.261,1.241-0.16,2.161-1.22,2.881l-0.5-0.44L11.622,62.739z M13.762,58.218l-1.04-0.42c0.561-0.34,0.98-0.6,1.421-0.84
		c0.08-0.04,0.2-0.06,0.279-0.02c0.561,0.3,1.101,0.6,1.641,0.92c0.08,0.06,0.101,0.2,0.141,0.32c-0.061,0.12-0.101,0.26-0.181,0.36
		c-0.54,0.6-0.52,1.36-0.58,2.1c-0.04,0.52-0.08,1.021-0.08,1.541c-0.02,0.2,0.101,0.4,0.101,0.62c0.06,1.38,0.12,2.761,0.14,4.161
		c0,0.24-0.16,0.5-0.28,0.8c0,0,0.08,0.06,0.181,0.14c-0.101,0.72-0.66,1.12-1.081,1.7c-0.199-0.2-0.359-0.32-0.5-0.46
		c0.04-0.02,0.08-0.02,0.101-0.04V66.46c0-0.92,0.04-1.82,0-2.721c-0.021-0.74-0.101-1.48-0.16-2.22
		c-0.021-0.36-0.16-0.74,0.14-1.021C13.643,59.739,13.862,58.998,13.762,58.218z M21.364,63.419l-0.301,0.48l0.08,0.08l0.4-0.3
		c0.86,0.78,0.7,1.521-0.5,2.141c-0.74-0.2-1.08-0.78-1.301-1.32c-0.979-1.06-1.8-2.14-3-2.84
		C18.323,62.139,20.044,62.219,21.364,63.419z"/>
	<path d="M11.481,129.917l-2.04,0.221c-0.12,0.3-0.2,0.54-0.28,0.78l-0.64,0.42c-0.36-0.28-0.421-0.66-0.301-1.04
		c0.381-1.141,0.601-2.321,0.62-3.541c0-0.181,0.08-0.38,0.181-0.7l0.899,0.92l-0.06,0.141l1.801-0.101v-1.94H9.481
		c-1.521,1.66-3.44,3.041-5.661,3.961c2.5-1.62,4.28-3.921,6.121-6.161l-0.06-0.101l-1.101,0.261c0.12-0.98-0.08-1.78-0.58-2.501
		c1.021-0.02,1.78,0.54,2.181,1.601c0.68-0.8,1.06-1.721,1.62-2.7c-0.26-0.021-0.44-0.061-0.62-0.04l-3.221,0.56l-0.601-1.26
		l0.12-0.141c0.46,0.04,0.921,0.101,1.381,0.12c0.3,0.021,0.62,0.021,0.92,0c0.56-0.06,1.12-0.1,1.7-0.18
		c0.22-0.04,0.46-0.141,0.681-0.24c0.22-0.1,0.42-0.24,0.66-0.4c0.359,0.46,0.899,0.761,0.96,1.501
		c-0.86,0.479-1.221,1.42-1.721,2.24c-0.36,0.54-0.8,1.021-1.18,1.54c-0.341,0.44-0.641,0.88-1.021,1.4c0.5-0.04,0.96-0.06,1.4-0.08
		l1.12-0.98l1.24,1.181c-0.28,0.24-0.48,0.42-0.681,0.561v2.24c-1.08,0.06-2.16,0.14-3.34,0.22l-0.32,1.841l2.08-0.221l0.9-0.74
		c0.48,0.261,0.9,0.561,0.96,1.121c0.061,0.54-0.5,0.58-0.72,0.859c-0.181,0.36-0.4,0.721-0.58,1.081c-0.28,0.52-0.5,1.08-0.82,1.58
		c-0.46,0.78-1.12,1.38-2.04,1.62l-0.221,0.04c-0.12-0.521-0.22-1.04-0.36-1.62l0.801,0.14c0.94-0.9,1.38-2.2,2.08-3.301
		L11.481,129.917z M10.481,135.719c1.54-1.16,3.101-2.32,4.621-3.44l-0.74-2.321l-0.48,0.101l-0.34-0.601
		c0.181-0.08,0.3-0.16,0.44-0.16c1.021-0.02,2.061,0,3.08-0.04c0.32,0,0.66-0.159,0.98-0.239l0.62-0.2
		c0.24,0.46,0.48,0.88,0.721,1.3c-0.221,0.521-0.641,0.681-1.021,0.841c-0.4,0.3-0.8,0.58-1.2,0.859l0.1,0.2
		c1.521,0.641,3.121,1.08,4.741,1.501c-0.38,0.159-0.78,0.279-1.12,0.5c-0.36,0.2-0.641,0.52-1.021,0.84
		c-0.72,0.08-1.12-0.08-4.041-1.78C14.103,134.099,12.362,135.059,10.481,135.719z M15.982,120.316l0.181,0.04l1.98-2.2l-0.381-0.58
		h1.261l1.021,1.1c-0.54,0.561-1.32,0.62-1.921,1c-0.62,0.381-1.28,0.66-2,1.021c0.439,0.601,0.84,1.16,1.28,1.74l1.76-1.92
		l-0.2-0.44c1.021-0.26,1.721,0.12,1.921,1.061c-0.88,0.88-2.12,1.06-3.221,1.76c1.62,1.521,3.461,2.581,5.521,3.361
		c-0.74,0.24-1.581,0.319-2.181,1.04c-0.24-0.061-0.561-0.08-0.761-0.24c-0.64-0.46-1.26-0.98-1.86-1.48
		c-0.279-0.22-0.54-0.439-0.88-0.6c0.061,0.12,0.12,0.24,0.2,0.359c-0.04,0-0.061-0.02-0.08-0.02l-0.1,1.98l1.479-0.48l0.641,0.78
		c-0.38,0.54-1,0.721-1.48,0.5c-0.42,0.101-0.78,0.181-1.04,0.221c-0.761-0.461-0.601-1.101-0.58-1.701l0.06-1.28
		c-0.399-0.279-0.72-0.04-1.08-0.04v0.921c-0.22,0.979-0.36,1.94-1.44,2.561c0.58-1.381,0.46-2.721,0.601-4.102l0.64,0.2l1.4-0.26
		l0.221-0.38c-0.921-1.78-1.561-3.581-1.521-5.562C15.623,119.215,15.803,119.776,15.982,120.316z M17.343,130.058l-0.06-0.141
		c-0.7-0.1-1.381-0.06-2.221,0.141c0.34,0.46,0.62,0.84,0.94,1.3L17.343,130.058z"/>
</g>
</svg>
