<?xml version="1.0" encoding="utf-8"?>
<!-- Generator: Adobe Illustrator 17.0.0, SVG Export Plug-In . SVG Version: 6.00 Build 0)  -->
<!DOCTYPE svg PUBLIC "-//W3C//DTD SVG 1.1//EN" "http://www.w3.org/Graphics/SVG/1.1/DTD/svg11.dtd">
<svg version="1.1" id="图层_1" xmlns="http://www.w3.org/2000/svg" xmlns:xlink="http://www.w3.org/1999/xlink" x="0px" y="0px"
	 width="24px" height="24px" viewBox="0 0 24 24" enable-background="new 0 0 24 24" xml:space="preserve">
<g>
	<path fill="#FFFFFF" d="M2.555,7.499l9.574,5.364l9.498-5.323l-9.572-5.361L2.555,7.499L2.555,7.499z M12.129,13.829
		c-0.076,0-0.152-0.02-0.22-0.057L1.413,7.893C1.27,7.813,1.183,7.662,1.183,7.499c0-0.163,0.088-0.313,0.231-0.393l10.421-5.838
		c0.136-0.076,0.303-0.076,0.441,0l10.494,5.878C22.912,7.226,23,7.376,23,7.539c0,0.163-0.088,0.313-0.23,0.394l-10.421,5.839
		C12.28,13.81,12.205,13.829,12.129,13.829L12.129,13.829z M12.129,13.829"/>
	<path fill="#FFFFFF" d="M12.129,17.885c-0.076,0-0.152-0.018-0.22-0.057l-10.496-5.88c-0.217-0.122-0.295-0.397-0.173-0.613
		c0.12-0.218,0.395-0.295,0.613-0.173l10.275,5.757l10.2-5.717c0.218-0.121,0.492-0.044,0.613,0.173
		c0.122,0.217,0.044,0.491-0.172,0.614l-10.42,5.839C12.28,17.866,12.205,17.885,12.129,17.885L12.129,17.885z M12.129,17.885"/>
	<path fill="#FFFFFF" d="M12.129,21.941c-0.076,0-0.152-0.019-0.22-0.056l-10.496-5.88c-0.217-0.122-0.295-0.397-0.173-0.614
		c0.12-0.217,0.395-0.296,0.613-0.173l10.275,5.756l10.2-5.715c0.218-0.121,0.492-0.044,0.613,0.174
		c0.122,0.217,0.044,0.491-0.172,0.613l-10.42,5.839C12.28,21.922,12.205,21.941,12.129,21.941L12.129,21.941z M12.129,21.941"/>
</g>
<g>
</g>
<g>
</g>
<g>
</g>
<g>
</g>
<g>
</g>
<g>
</g>
</svg>
