<?xml version="1.0" encoding="utf-8"?>
<!-- Generator: Adobe Illustrator 17.0.0, SVG Export Plug-In . SVG Version: 6.00 Build 0)  -->
<!DOCTYPE svg PUBLIC "-//W3C//DTD SVG 1.1//EN" "http://www.w3.org/Graphics/SVG/1.1/DTD/svg11.dtd">
<svg version="1.1" id="图层_1" xmlns="http://www.w3.org/2000/svg" xmlns:xlink="http://www.w3.org/1999/xlink" x="0px" y="0px"
	 width="24px" height="24px" viewBox="0 0 24 24" enable-background="new 0 0 24 24" xml:space="preserve">
<g>
	<path fill="#FFFFFF" d="M19.994,9.596c-0.684,0-1.328,0.172-1.891,0.476l-2.975-3.57c0.547-0.685,0.875-1.552,0.875-2.495
		c0-2.208-1.796-4.004-4.004-4.004c-2.208,0-4.004,1.796-4.004,4.004c0,1.275,0.599,2.412,1.53,3.146l-4.488,8.976
		c-0.33-0.088-0.676-0.135-1.033-0.135C1.796,15.992,0,17.788,0,19.996C0,22.204,1.796,24,4.004,24s4.004-1.796,4.004-4.004
		c0-1.275-0.599-2.412-1.53-3.146l4.488-8.976c0.33,0.088,0.676,0.135,1.033,0.135c0.684,0,1.328-0.172,1.891-0.476l2.975,3.57
		c-0.547,0.685-0.875,1.553-0.875,2.496c0,2.208,1.796,4.004,4.004,4.004c2.208,0,4.004-1.796,4.004-4.004
		C23.998,11.392,22.202,9.596,19.994,9.596L19.994,9.596z M4.004,22.388c-1.319,0-2.392-1.073-2.392-2.392s1.073-2.392,2.392-2.392
		s2.392,1.073,2.392,2.392S5.323,22.388,4.004,22.388L4.004,22.388z M9.607,4.006c0-1.319,1.073-2.392,2.392-2.392
		c1.319,0,2.392,1.073,2.392,2.392c0,1.319-1.073,2.392-2.392,2.392C10.68,6.398,9.607,5.325,9.607,4.006L9.607,4.006z
		 M19.994,15.992c-1.319,0-2.392-1.073-2.392-2.392c0-1.319,1.073-2.392,2.392-2.392s2.392,1.073,2.392,2.392
		C22.386,14.919,21.313,15.992,19.994,15.992L19.994,15.992z M19.994,15.992"/>
</g>
<g>
</g>
<g>
</g>
<g>
</g>
<g>
</g>
<g>
</g>
<g>
</g>
</svg>
