<?xml version="1.0" encoding="utf-8"?>
<!-- Generator: Adobe Illustrator 17.0.0, SVG Export Plug-In . SVG Version: 6.00 Build 0)  -->
<!DOCTYPE svg PUBLIC "-//W3C//DTD SVG 1.1//EN" "http://www.w3.org/Graphics/SVG/1.1/DTD/svg11.dtd">
<svg version="1.1" id="图层_1" xmlns="http://www.w3.org/2000/svg" xmlns:xlink="http://www.w3.org/1999/xlink" x="0px" y="0px"
	 width="16px" height="16px" viewBox="0 0 16 16" enable-background="new 0 0 16 16" xml:space="preserve">
<rect fill="#333139" width="16" height="16"/>
<g>
	<path fill="#FAFAFC" d="M4.99,9.007H2.004C0.886,9.007,0,9.904,0,11.011v2.985C0.001,15.114,0.898,16,2.004,16h2.985
		c1.118,0,2.004-0.897,2.004-2.004v-2.985C6.994,9.893,6.096,9.007,4.99,9.007L4.99,9.007z M5.995,14.002
		c0,0.551-0.444,0.999-0.999,0.999H1.999C1.448,15.001,1,14.557,1,14.002v-2.997c0-0.551,0.444-0.999,0.999-0.999h2.997
		c0.551,0,0.999,0.444,0.999,0.999V14.002L5.995,14.002z M5.995,14.002"/>
	<path fill="#FAFAFC" d="M13.981,0.016h-2.985c-1.118,0-2.004,0.897-2.004,2.004v2.985c0,1.118,0.898,2.004,2.003,2.004h2.985
		c1.118,0,2.004-0.897,2.004-2.004V2.02C15.985,0.902,15.087,0.016,13.981,0.016L13.981,0.016z M14.986,5.011
		c0,0.551-0.444,0.999-0.999,0.999H10.99c-0.551,0-0.999-0.444-0.999-0.999V2.014c0-0.551,0.444-0.999,0.999-0.999h2.997
		c0.551,0,0.999,0.444,0.999,0.999V5.011L14.986,5.011z M14.986,5.011"/>
	<path fill="#FAFAFC" d="M4.99,0.016H2.004c-1.118,0-2.003,0.897-2.003,2.004v2.985c0,1.118,0.897,2.004,2.003,2.004h2.985
		c1.118,0,2.004-0.897,2.004-2.004V2.02C6.994,0.902,6.096,0.016,4.99,0.016L4.99,0.016z M5.995,5.011
		c0,0.551-0.444,0.999-0.999,0.999H1.999C1.448,6.01,1,5.566,1,5.011V2.014c0-0.551,0.444-0.999,0.999-0.999h2.997
		c0.551,0,0.999,0.444,0.999,0.999V5.011L5.995,5.011z M5.995,5.011"/>
	<path fill="#FAFAFC" d="M13.981,9.007h-2.985c-1.118,0-2.004,0.897-2.004,2.004v2.985C8.992,15.114,9.89,16,10.997,16h2.985
		c1.118,0,2.004-0.897,2.004-2.004v-2.985C15.985,9.893,15.087,9.007,13.981,9.007L13.981,9.007z M14.986,14.002
		c0,0.551-0.444,0.999-0.999,0.999H10.99c-0.551,0-0.999-0.444-0.999-0.999v-2.997c0-0.551,0.444-0.999,0.999-0.999h2.997
		c0.551,0,0.999,0.444,0.999,0.999V14.002L14.986,14.002z M14.986,14.002"/>
</g>
<g>
</g>
<g>
</g>
<g>
</g>
<g>
</g>
<g>
</g>
<g>
</g>
</svg>
